<svg width="29" height="63" viewBox="0 0 29 63" fill="none" xmlns="http://www.w3.org/2000/svg">
<g opacity="0.55">
<path d="M14.2773 45.0854C13.3548 45.0854 12.6074 45.8698 12.6074 46.8378V56.9822L9.44224 54.0781C8.74796 53.4421 7.69393 53.516 7.08653 54.2432C6.47914 54.9718 6.54958 56.0783 7.24386 56.7157L13.1773 62.1616C13.4941 62.4516 13.8855 62.5945 14.2757 62.5945H14.2769C14.6671 62.5945 15.0589 62.4516 15.3753 62.1608L21.3058 56.7148C22.0001 56.0774 22.0701 54.9708 21.4627 54.2428C20.8566 53.5143 19.8017 53.4417 19.107 54.0782L15.9452 56.9808L15.9461 46.8369C15.9473 45.8698 15.1995 45.0855 14.2775 45.0855L14.2773 45.0854Z" fill="black"/>
<path d="M28.5504 31.232V11.1544C28.5504 5.00381 23.7819 0 17.921 0H10.6314C4.76928 0 0 5.00381 0 11.1544V31.232C0 37.3827 4.76928 42.3874 10.6314 42.3874H17.921C23.7818 42.3874 28.5504 37.3831 28.5504 31.232ZM25.2105 31.232C25.2105 35.4515 21.9408 38.8836 17.9201 38.8836H10.6314C6.61046 38.8836 3.3394 35.4515 3.3394 31.232V11.1544C3.3394 6.93588 6.61089 3.50369 10.6314 3.50369H17.921C21.9411 3.50369 25.2114 6.93577 25.2114 11.1544V31.232H25.2105Z" fill="black"/>
<path d="M14.2773 9.93555C13.3549 9.93555 12.6074 10.7199 12.6074 11.6879V16.894C12.6074 17.862 13.3549 18.6463 14.2773 18.6463C15.1998 18.6463 15.9473 17.862 15.9473 16.894V11.6879C15.9473 10.7203 15.1994 9.93555 14.2773 9.93555V9.93555Z" fill="black"/>
</g>
</svg>
