<svg width="29" height="43" viewBox="0 0 29 43" fill="none" xmlns="http://www.w3.org/2000/svg">
<path d="M28.5504 31.232V11.1544C28.5504 5.00381 23.7819 0 17.921 0H10.6314C4.76928 0 0 5.00381 0 11.1544V31.232C0 37.3827 4.76928 42.3874 10.6314 42.3874H17.921C23.7818 42.3874 28.5504 37.3831 28.5504 31.232ZM25.2105 31.232C25.2105 35.4515 21.9408 38.8836 17.9201 38.8836H10.6314C6.61046 38.8836 3.3394 35.4515 3.3394 31.232V11.1544C3.3394 6.93588 6.61089 3.50369 10.6314 3.50369H17.921C21.9411 3.50369 25.2114 6.93577 25.2114 11.1544V31.232H25.2105Z" fill="black"/>
</svg>
