<svg width="29" height="78" viewBox="0 0 29 78" fill="none" xmlns="http://www.w3.org/2000/svg">
<g opacity="0.55">
<path d="M14.2773 60C13.3548 60 12.6074 60.7843 12.6074 61.7524V71.8967L9.44224 68.9927C8.74796 68.3567 7.69393 68.4306 7.08654 69.1578C6.47914 69.8864 6.54958 70.9929 7.24386 71.6302L13.1773 77.0762C13.4941 77.3661 13.8855 77.5091 14.2757 77.5091H14.2769C14.6671 77.5091 15.0589 77.3661 15.3753 77.0753L21.3058 71.6294C22.0001 70.992 22.0701 69.8854 21.4627 69.1574C20.8566 68.4288 19.8017 68.3562 19.107 68.9927L15.9452 71.8954L15.9461 61.7515C15.9473 60.7843 15.1993 60 14.2773 60Z" fill="black"/>
<path d="M28.5504 31.232V11.1544C28.5504 5.00381 23.7819 0 17.921 0H10.6314C4.76928 0 0 5.00381 0 11.1544V31.232C0 37.3827 4.76928 42.3874 10.6314 42.3874H17.921C23.7818 42.3874 28.5504 37.3831 28.5504 31.232ZM25.2105 31.232C25.2105 35.4515 21.9408 38.8836 17.9201 38.8836H10.6314C6.61046 38.8836 3.3394 35.4515 3.3394 31.232V11.1544C3.3394 6.93588 6.61089 3.50369 10.6314 3.50369H17.921C21.9411 3.50369 25.2114 6.93577 25.2114 11.1544V31.232H25.2105Z" fill="black"/>
<path d="M14.2773 9.93555C13.3549 9.93555 12.6074 10.7199 12.6074 11.6879V16.894C12.6074 17.862 13.3549 18.6463 14.2773 18.6463C15.1998 18.6463 15.9473 17.862 15.9473 16.894V11.6879C15.9473 10.7203 15.1994 9.93555 14.2773 9.93555Z" fill="black"/>
</g>
</svg>
